<svg xmlns="http://www.w3.org/2000/svg" width="46" height="46" viewBox="0 0 46 46">
  <g id="twitter" transform="translate(-1560 -22)">
    <circle id="Ellipse_7" data-name="Ellipse 7" cx="23" cy="23" r="23" transform="translate(1560 22)" fill="#bcbcbc"/>
    <path id="Icon_awesome-twitter" data-name="Icon awesome-twitter" d="M26.916,8.89c.019.266.019.533.019.8,0,8.128-6.187,17.494-17.494,17.494A17.375,17.375,0,0,1,0,24.423a12.72,12.72,0,0,0,1.485.076,12.314,12.314,0,0,0,7.633-2.627,6.159,6.159,0,0,1-5.749-4.264,7.754,7.754,0,0,0,1.161.1,6.5,6.5,0,0,0,1.618-.209,6.149,6.149,0,0,1-4.93-6.034v-.076A6.192,6.192,0,0,0,4,12.164a6.158,6.158,0,0,1-1.9-8.223,17.477,17.477,0,0,0,12.678,6.434,6.941,6.941,0,0,1-.152-1.409A6.154,6.154,0,0,1,25.26,4.759a12.105,12.105,0,0,0,3.9-1.485,6.132,6.132,0,0,1-2.7,3.388A12.326,12.326,0,0,0,30,5.711,13.217,13.217,0,0,1,26.916,8.89Z" transform="translate(1568 30)" fill="#404040"/>
  </g>
</svg>
