<svg xmlns="http://www.w3.org/2000/svg" width="31.298" height="35" viewBox="0 0 31.298 35">
  <path id="Icon_awesome-arrow-alt-circle-left" data-name="Icon awesome-arrow-alt-circle-left" d="M16.212,35.563C7.567,35.563.563,27.73.563,18.063s7-17.5,15.649-17.5S31.861,8.4,31.861,18.063,24.856,35.563,16.212,35.563Zm7.32-20.6h-7.32v-5a.751.751,0,0,0-1.294-.6L7.706,17.463a.91.91,0,0,0,0,1.193l7.212,8.108a.75.75,0,0,0,1.294-.6v-5h7.32a.808.808,0,0,0,.757-.847V15.8A.808.808,0,0,0,23.531,14.958Z" transform="translate(-0.563 -0.563)" fill="#fff"/>
</svg>
