<svg xmlns="http://www.w3.org/2000/svg" width="40" height="40" viewBox="0 0 40 40">
  <g id="Group_21" data-name="Group 21" transform="translate(-790 -566)">
    <circle id="Ellipse_1" data-name="Ellipse 1" cx="20" cy="20" r="20" transform="translate(790 566)" fill="#464646"/>
    <path id="Icon_awesome-twitter" data-name="Icon awesome-twitter" d="M20.157,7.928c.014.2.014.4.014.6a13.011,13.011,0,0,1-13.1,13.1A13.012,13.012,0,0,1,0,19.56a9.525,9.525,0,0,0,1.112.057A9.221,9.221,0,0,0,6.828,17.65a4.612,4.612,0,0,1-4.305-3.193,5.806,5.806,0,0,0,.87.071A4.87,4.87,0,0,0,4.6,14.371,4.6,4.6,0,0,1,.912,9.853V9.8a4.637,4.637,0,0,0,2.081.584A4.611,4.611,0,0,1,1.568,4.222,13.088,13.088,0,0,0,11.062,9.04a5.2,5.2,0,0,1-.114-1.055,4.609,4.609,0,0,1,7.969-3.15,9.065,9.065,0,0,0,2.922-1.112A4.592,4.592,0,0,1,19.814,6.26a9.23,9.23,0,0,0,2.651-.713,9.9,9.9,0,0,1-2.309,2.381Z" transform="translate(799.768 573.496)" fill="#fff"/>
  </g>
</svg>
